# File created by Blade
# Date/Time:  Thu Sep 25 19:04:16 2014
# Frame Rate: 120.000 fps
#------------------------------------------------------
:FULLY-SPECIFIED
:DEGREES
1330
root 6.889434 20.922232 -9.599865 42.075309 16.954089 4.675223
Spine 0.236635 -8.530839 -8.991351
Head -43.708780 -3.802549 7.587088
LeftShoulder -5.495942 6.348707 32.406338
LeftArm 33.174740 -29.476348 -35.585408
LeftForeArm 5.178847 -0.000000 17.586554
LeftHand -31.700790 -0.000000 2.428876
LeftHandThumb1 -26.253704 0.000000 33.147579
RightShoulder -18.232194 17.025339 -40.214951
RightArm -15.151037 14.959047 34.207354
RightForeArm -22.562990 -0.000000 18.097013
RightHand -15.561551 -0.000000 -19.988136
RightHandThumb1 -24.326973 -0.000000 -32.862282
LeftUpLeg -117.390923 37.234747 -29.034037
LeftLeg 89.060879 -0.000000 -0.000000
LeftFoot -15.066704 -22.866045 -14.321730
LeftToeBase -0.075006 -0.000000 0.000000
RightUpLeg -24.705250 -55.996867 -34.886976
RightLeg -3.174048 -0.000000 0.000000
RightFoot 12.575215 -10.496507 34.036341
RightToeBase 1.833886 -0.000000 -0.000000
1331
root 6.900221 20.878745 -9.649811 42.302730 16.949977 4.558304
Spine 0.666344 -8.598199 -9.257182
Head -43.877109 -3.660221 7.458764
LeftShoulder -5.347860 6.100550 32.509402
LeftArm 32.615918 -28.717743 -35.237502
LeftForeArm 4.935813 0.000000 17.651603
LeftHand -31.496421 0.000000 1.902705
LeftHandThumb1 -26.253704 0.000000 33.147579
RightShoulder -18.221764 17.051141 -40.168555
RightArm -15.105002 14.975641 34.176946
RightForeArm -22.246364 -0.000000 17.920324
RightHand -15.371383 -0.000000 -20.266813
RightHandThumb1 -24.326973 -0.000000 -32.862282
LeftUpLeg -117.918836 37.061773 -29.141029
LeftLeg 89.274615 -0.000000 -0.000000
LeftFoot -15.108444 -22.765739 -14.270125
LeftToeBase -0.119006 -0.000000 0.000000
RightUpLeg -25.140457 -56.050148 -34.544286
RightLeg -3.231931 -0.000000 0.000000
RightFoot 12.608125 -10.570328 34.124112
RightToeBase 1.805077 -0.000000 -0.000000
1332
root 6.912305 20.838648 -9.702577 42.595637 16.956651 4.479440
Spine 1.012980 -8.682338 -9.546817
Head -43.960915 -3.463663 7.331749
LeftShoulder -5.178743 6.012646 32.532312
LeftArm 32.114829 -27.910852 -34.731177
LeftForeArm 4.557572 -0.000000 17.694185
LeftHand -31.257005 -0.000000 1.584410
LeftHandThumb1 -26.253704 0.000000 33.147579
RightShoulder -18.246866 17.068055 -40.190498
RightArm -15.094083 15.170859 34.122525
RightForeArm -22.172610 -0.000000 17.832026
RightHand -15.598790 -0.000000 -19.480174
RightHandThumb1 -24.326973 -0.000000 -32.862282
LeftUpLeg -118.432907 36.809278 -29.225660
LeftLeg 89.476898 -0.000000 -0.000000
LeftFoot -15.157168 -22.601567 -14.231187
LeftToeBase -0.224765 -0.000000 0.000000
RightUpLeg -25.619667 -56.119392 -34.216988
RightLeg -3.240408 -0.000000 0.000000
RightFoot 12.601078 -10.672769 34.225571
RightToeBase 1.817550 -0.000000 -0.000000
1333
root 6.918607 20.797062 -9.746758 42.778384 17.009919 4.300067
Spine 1.450922 -8.703974 -9.744061
Head -44.036774 -3.357333 7.213009
LeftShoulder -5.040093 5.940630 32.497044
LeftArm 31.663208 -27.068103 -34.184871
LeftForeArm 4.231674 -0.000000 17.745168
LeftHand -30.802294 -0.000000 1.043451
LeftHandThumb1 -26.253704 0.000000 33.147579
RightShoulder -18.280133 17.092276 -40.192394
RightArm -15.096904 15.393732 34.074115
RightForeArm -22.003292 -0.000000 17.737702
RightHand -15.573216 -0.000000 -19.792267
RightHandThumb1 -24.326973 -0.000000 -32.862282
LeftUpLeg -118.879897 36.641724 -29.136820
LeftLeg 89.701380 -0.000000 -0.000000
LeftFoot -15.224290 -22.453315 -14.185152
LeftToeBase -0.180510 -0.000000 0.000000
RightUpLeg -26.127778 -56.295627 -33.687592
RightLeg -3.290999 -0.000000 0.000000
RightFoot 12.732838 -10.632704 34.317421
RightToeBase 1.758690 -0.000000 -0.000000
1334
root 6.926777 20.759199 -9.790990 42.997973 17.078383 4.175920
Spine 1.842896 -8.761638 -9.990181
Head -44.078008 -3.281904 7.160051
LeftShoulder -4.803090 5.780271 32.495697
LeftArm 31.005946 -26.000623 -33.509547
LeftForeArm 3.881189 0.000000 17.823343
LeftHand -30.444719 -0.000000 0.987909
LeftHandThumb1 -26.253704 0.000000 33.147579
RightShoulder -18.303257 17.087256 -40.170336
RightArm -15.127814 15.533158 34.020555
RightForeArm -21.656402 0.000000 17.719143
RightHand -15.468570 0.000000 -19.964355
RightHandThumb1 -24.326973 -0.000000 -32.862282
LeftUpLeg -119.262887 36.398089 -29.013367
LeftLeg 89.881070 -0.000000 -0.000000
LeftFoot -15.306753 -22.236459 -14.173167
LeftToeBase -0.293457 -0.000000 0.000000
RightUpLeg -26.615093 -56.497525 -33.217554
RightLeg -3.311496 -0.000000 0.000000
RightFoot 12.841428 -10.590357 34.386534
RightToeBase 1.722979 -0.000000 -0.000000
